Coordinates
version=1
nRows=20
nColumns=32
inDegrees=yes

Units are S.I. units (second, meters, Newtons, ...)
If the header above contains a line with 'inDegrees', this indicates whether rotational values are in degrees (yes) or radians (no).

endheader
time	pelvis_tilt	pelvis_list	pelvis_rotation	pelvis_tx	pelvis_ty	pelvis_tz	hip_flexion_r	hip_adduction_r	hip_rotation_r	knee_angle_r	ankle_angle_r	subtalar_angle_r	mtp_angle_r	hip_flexion_l	hip_adduction_l	hip_rotation_l	knee_angle_l	ankle_angle_l	subtalar_angle_l	mtp_angle_l	lumbar_extension	lumbar_bending	lumbar_rotation	arm_flex_r	arm_add_r	arm_rot_r	elbow_flex_r	arm_flex_l	arm_add_l	arm_rot_l	elbow_flex_l
      2.88000000	      0.63356081	      2.28148721	      2.17269524	      0.10030303	      0.83152540	     -0.36475120	     -8.06759756	      3.33781192	    -10.60969325	    -48.41837809	      6.94682182	    -29.33317819	      0.00000000	     37.22093878	      7.16732313	      6.45464295	    -47.92286497	      8.65039920	    -20.03899357	      0.00000000	    -11.34360735	     -8.58772025	    -13.00777189	      0.00000000	      0.00000000	      0.00000000	      0.00000000	      0.00000000	      0.00000000	      0.00000000	      0.00000000
      2.89000000	      0.34757987	      2.52491373	      2.24326725	      0.11216949	      0.83382569	     -0.36460542	     -7.59416327	      3.03490368	    -10.70138798	    -49.26689054	      5.49534819	    -28.71153536	      0.00000000	     36.56486892	      7.44229677	      6.53889845	    -47.89765531	      9.32868447	    -20.12266162	      0.00000000	    -10.97496164	     -9.10726839	    -12.75507817	      0.00000000	      0.00000000	      0.00000000	      0.00000000	      0.00000000	      0.00000000	      0.00000000	      0.00000000
      2.90000000	      0.13441425	      2.79469280	      2.08912256	      0.12393606	      0.83662597	     -0.36392328	     -7.10313961	      2.68811374	    -10.69635258	    -50.07391732	      4.07927861	    -28.51996719	      0.00000000	     35.74259771	      7.53262365	      6.33625446	    -47.67549114	     10.08168103	    -20.11043519	      0.00000000	    -10.62696797	     -9.81378161	    -12.51715440	      0.00000000	      0.00000000	      0.00000000	      0.00000000	      0.00000000	      0.00000000	      0.00000000	      0.00000000
      2.91000000	      0.11144068	      2.76752807	      1.76520980	      0.13590843	      0.83976405	     -0.36161609	     -6.75102483	      3.07569095	     -9.89843488	    -50.65808902	      1.64839901	    -30.00007015	      0.00000000	     34.69406751	      7.02123704	      5.88293739	    -47.43777009	     11.19071981	    -19.17036344	      0.00000000	    -10.72871146	    -10.01927035	    -11.03013164	      0.00000000	      0.00000000	      0.00000000	      0.00000000	      0.00000000	      0.00000000	      0.00000000	      0.00000000
      2.92000000	     -0.08366594	      2.77299152	      1.79782012	      0.14695381	      0.84250465	     -0.36163009	     -6.02443250	      2.91834068	    -10.04206435	    -51.56742327	      0.79147596	    -29.68924168	      0.00000000	     33.75485404	      7.07893982	      6.07725313	    -46.96325184	     11.80709853	    -19.25278264	      0.00000000	    -10.52562078	    -10.14662409	    -11.07439111	      0.00000000	      0.00000000	      0.00000000	      0.00000000	      0.00000000	      0.00000000	      0.00000000	      0.00000000
      2.93000000	     -0.10240741	      2.66723770	      1.54962459	      0.15719871	      0.84600298	     -0.36191368	     -5.26028693	      2.79379255	     -9.92840969	    -52.60872146	      0.31300850	    -29.61936690	      0.00000000	     32.72234257	      7.02091646	      6.57516348	    -46.43480918	     12.01552710	    -19.48223948	      0.00000000	    -10.35528247	    -10.31289556	    -11.58923828	      0.00000000	      0.00000000	      0.00000000	      0.00000000	      0.00000000	      0.00000000	      0.00000000	      0.00000000
      2.94000000	     -0.28345708	      2.48976239	      1.84562663	      0.16849065	      0.84928841	     -0.36104825	     -4.40565119	      3.05788178	    -10.16850919	    -53.46059929	     -0.08627249	    -29.02659208	      0.00000000	     31.69762677	      6.82821709	      6.68471592	    -45.88932547	     12.50910793	    -19.55389380	      0.00000000	    -10.39305374	    -10.07049877	    -10.99954007	      0.00000000	      0.00000000	      0.00000000	      0.00000000	      0.00000000	      0.00000000	      0.00000000	      0.00000000
      2.95000000	     -0.28790639	      2.15269675	      1.74174708	      0.17890006	      0.85280123	     -0.36002196	     -3.45412733	      3.32885402	    -10.15859152	    -54.66960372	      1.88167643	    -26.36744948	      0.00000000	     30.56493989	      6.32432183	      6.79161424	    -45.30297349	     13.18521218	    -19.18658134	      0.00000000	    -10.42447132	     -9.85482218	    -10.62325641	      0.00000000	      0.00000000	      0.00000000	      0.00000000	      0.00000000	      0.00000000	      0.00000000	      0.00000000
      2.96000000	     -0.32229706	      1.83774882	      1.87685593	      0.18867562	      0.85620055	     -0.36059688	     -2.28278731	      3.32752979	    -10.58196359	    -56.02017915	      2.50123192	    -25.31884250	      0.00000000	     29.48113897	      6.08975908	      7.15745270	    -44.66720513	     13.71107401	    -19.27571094	      0.00000000	    -10.27450073	     -9.67551604	    -11.73571329	      0.00000000	      0.00000000	      0.00000000	      0.00000000	      0.00000000	      0.00000000	      0.00000000	      0.00000000
      2.97000000	     -0.46911361	      1.32681920	      1.95602385	      0.19972015	      0.85975799	     -0.35899799	     -1.21526141	      3.62766416	    -11.15095862	    -57.07931450	      4.80718031	    -22.31649924	      0.00000000	     28.39769398	      5.41249844	      7.46091264	    -43.91268664	     14.09389394	    -19.11921822	      0.00000000	    -10.21190675	     -9.10244326	    -10.71515641	      0.00000000	      0.00000000	      0.00000000	      0.00000000	      0.00000000	      0.00000000	      0.00000000	      0.00000000
      2.98000000	     -0.27758235	      0.97489290	      1.74196054	      0.20904808	      0.86321746	     -0.35893373	     -0.00994195	      3.52284888	    -11.52171092	    -58.61602195	      4.95699759	    -22.45386808	      0.00000000	     27.10246575	      4.99272024	      7.73732054	    -43.25679174	     14.11308368	    -19.02368226	      0.00000000	    -10.29202714	     -8.90841454	    -10.92478213	      0.00000000	      0.00000000	      0.00000000	      0.00000000	      0.00000000	      0.00000000	      0.00000000	      0.00000000
      2.99000000	     -0.57701803	      0.82079825	      2.47394905	      0.21950450	      0.86632868	     -0.35955317	      1.53383933	      3.11307733	    -12.98699414	    -59.97582048	      5.95681565	    -21.40080785	      0.00000000	     26.12974228	      5.15474124	      8.72182305	    -42.32929493	     14.72787690	    -19.03391288	      0.00000000	     -9.99603905	     -8.69249097	    -11.76507344	      0.00000000	      0.00000000	      0.00000000	      0.00000000	      0.00000000	      0.00000000	      0.00000000	      0.00000000
      3.00000000	     -0.60223850	      0.77299430	      1.99598592	      0.22917703	      0.86958618	     -0.35807658	      3.21319894	      2.49675976	    -13.47612134	    -61.92625376	      7.69868344	    -19.81315345	      0.00000000	     24.93531738	      4.70055571	      8.31198031	    -41.38937342	     14.60121613	    -19.00917933	      0.00000000	     -9.90468850	     -8.77967571	    -11.20740694	      0.00000000	      0.00000000	      0.00000000	      0.00000000	      0.00000000	      0.00000000	      0.00000000	      0.00000000
      3.01000000	     -0.63676768	      0.66929515	      2.10089099	      0.23939965	      0.87252421	     -0.35822682	      4.80178612	      1.93394474	    -14.31603357	    -63.59582367	      8.13031119	    -20.06819199	      0.00000000	     23.71075649	      4.66857491	      9.05905087	    -40.45175865	     14.73460013	    -19.07519975	      0.00000000	    -10.06760179	     -8.31769149	    -10.50375570	      0.00000000	      0.00000000	      0.00000000	      0.00000000	      0.00000000	      0.00000000	      0.00000000	      0.00000000
      3.02000000	     -0.73955265	      0.49845723	      2.16609514	      0.24871328	      0.87522528	     -0.35873946	      6.64975672	      1.19097935	    -15.34274531	    -65.44916896	      9.03182482	    -19.96168996	      0.00000000	     22.67604956	      4.51880949	      9.40289868	    -39.60510331	     14.90737918	    -19.47055773	      0.00000000	     -9.80057222	     -8.22836380	    -11.48957479	      0.00000000	      0.00000000	      0.00000000	      0.00000000	      0.00000000	      0.00000000	      0.00000000	      0.00000000
      3.03000000	     -0.67482634	      0.30575619	      2.05295400	      0.25862524	      0.87804948	     -0.35777089	      8.27302975	      0.68133654	    -16.00433307	    -67.00696619	      9.31331001	    -20.21312554	      0.00000000	     21.36133693	      4.12719732	      9.50167477	    -38.61918419	     14.84450541	    -19.43121274	      0.00000000	     -9.79740568	     -8.01400953	    -11.22881187	      0.00000000	      0.00000000	      0.00000000	      0.00000000	      0.00000000	      0.00000000	      0.00000000	      0.00000000
      3.04000000	     -0.65274728	      0.30503223	      2.01961503	      0.26824657	      0.88037639	     -0.35789909	     10.17221363	     -0.22380803	    -16.77328360	    -68.90819085	      9.63587971	    -20.84817615	      0.00000000	     20.13263912	      4.04705122	      9.64130930	    -37.70218436	     15.01666216	    -19.53686813	      0.00000000	     -9.83393029	     -7.85085866	    -11.05647265	      0.00000000	      0.00000000	      0.00000000	      0.00000000	      0.00000000	      0.00000000	      0.00000000	      0.00000000
      3.05000000	     -1.13014626	      0.52524670	      2.06054259	      0.27706324	      0.88170024	     -0.35858778	     12.78295552	     -1.50978961	    -17.27544349	    -71.11175180	     10.76830909	    -20.42056221	      0.00000000	     19.59478124	      4.32106877	      9.84396267	    -36.93929216	     14.74320383	    -20.05590120	      0.00000000	     -9.45146691	     -7.85855817	    -11.26032060	      0.00000000	      0.00000000	      0.00000000	      0.00000000	      0.00000000	      0.00000000	      0.00000000	      0.00000000
      3.06000000	     -0.89333736	      0.22164956	      1.97337241	      0.28633309	      0.88379932	     -0.35813191	     14.50156871	     -1.95866852	    -17.70637926	    -72.64285490	     11.06584344	    -20.81431686	      0.00000000	     18.37669231	      3.84721675	      9.89851494	    -36.38837115	     14.75418396	    -19.99171264	      0.00000000	     -9.85167573	     -7.31665140	    -11.18863434	      0.00000000	      0.00000000	      0.00000000	      0.00000000	      0.00000000	      0.00000000	      0.00000000	      0.00000000
      3.07000000	     -0.94196987	      0.33395883	      2.05649413	      0.29593582	      0.88550961	     -0.35838058	     16.43951691	     -2.98343407	    -18.22497561	    -74.17772133	     12.30816155	    -21.46276328	      0.00000000	     17.28693708	      3.88770013	      9.99540636	    -35.52096534	     15.01494435	    -19.91939113	      0.00000000	     -9.78720308	     -7.17687960	    -10.87235831	      0.00000000	      0.00000000	      0.00000000	      0.00000000	      0.00000000	      0.00000000	      0.00000000	      0.00000000
